<svg fill="none" height="189" viewBox="0 0 189 189" width="189" xmlns="http://www.w3.org/2000/svg"><path clip-rule="evenodd" d="m109.315 130.74c18.414-2.175 38-8.87 38-40.6763 0-9.0403-3.184-16.4076-8.369-22.1001.837-2.1742 3.513-10.378-1.009-21.7597 0 0-6.696-2.1772-22.428 8.368-6.696-1.8394-14.061-3.0133-20.9241-3.0133-7.0332 0-14.4005 1.1739-20.9292 3.0133-15.9033-10.5452-22.5988-8.368-22.5988-8.368-4.5186 11.3817-1.8394 19.5855-1.0033 21.7597-5.1905 5.6921-8.371 13.0598-8.371 22.1001 0 31.8063 19.5855 38.5013 38.0001 40.6763-2.3418 2.013-4.5187 5.859-5.3551 11.217-4.6889 2.007-16.9096 5.859-24.274-6.863 0 0-4.354-7.866-12.5552-8.368 0 0-8.2038-.167-.6692 5.017 0 0 5.5223 2.515 9.2074 12.054 0 0 5.0203 15.906 28.1208 10.882v14.228c0 2.18-1.6722 4.689-5.8564 4.02-32.8122-10.883-56.4147-42.02-56.4147-78.5119 0-45.7022 36.9938-82.6956 82.6986-82.6956 45.5321 0 82.6961 36.9938 82.5291 82.6956 0 36.4919-23.605 67.4619-56.415 78.5119-4.187.836-5.86-1.672-5.86-4.02v-22.93c.001-7.705-2.514-12.723-5.524-15.237zm79.685-36.1551c0-52.2334-42.354-94.5849-94.4151-94.5849-52.2334 0-94.5849 42.3515-94.5849 94.5849 0 52.0611 42.3515 94.4151 94.5849 94.4151 52.0611 0 94.4151-42.354 94.4151-94.4151z" fill="#000" fill-opacity=".0428" fill-rule="evenodd"/></svg>