<svg fill="none" height="36" viewBox="0 0 36 36" width="36" xmlns="http://www.w3.org/2000/svg"><path clip-rule="evenodd" d="m20.4282 24.5104c3.4412-.4077 7.1013-1.6629 7.1013-7.6258 0-1.6948-.5949-3.076-1.5639-4.1432.1563-.4076.6564-1.9456-.1886-4.07937 0 0-1.2513-.40817-4.1913 1.56877-1.2513-.34483-2.6276-.5649-3.9101-.5649-1.3144 0-2.6911.22007-3.9112.5649-2.9719-1.97694-4.22313-1.56877-4.22313-1.56877-.84442 2.13377-.34374 3.67177-.18749 4.07937-.96998 1.0671-1.56434 2.4484-1.56434 4.1432 0 5.9629 3.66006 7.2181 7.10126 7.6258-.4376.3773-.8444 1.0984-1.0007 2.1029-.8763.3763-3.16 1.0985-4.53622-1.2867 0 0-.81366-1.4747-2.34626-1.5688 0 0-1.53308-.0313-.12507.9407 0 0 1.03199.4714 1.72065 2.2597 0 0 .93817 2.9819 5.2551 2.0401v2.6674c0 .4087-.3125.879-1.0944.7536-6.13182-2.0402-10.54254-7.8777-10.54254-14.7189 0-8.56799 6.91322-15.5033 15.45434-15.5033 8.5088 0 15.4538 6.93538 15.4225 15.5033 0 6.8412-4.4112 12.6473-10.5425 14.7189-.7824.1568-1.095-.3135-1.095-.7536v-4.2989c.0001-1.4445-.4698-2.3851-1.0324-2.8564zm14.8912-6.7782c0-9.79239-7.9149-17.73219993-17.6438-17.73219993-9.76116 0-17.67560075 7.93980993-17.67560075 17.73219993 0 9.7601 7.91444075 17.7004 17.67560075 17.7004 9.7289 0 17.6438-7.9403 17.6438-17.7004z" fill="#fff" fill-rule="evenodd"/></svg>